<?xml version="1.0" standalone="no"?>
<!DOCTYPE svg PUBLIC "-//W3C//DTD SVG 20010904//EN"
 "http://www.w3.org/TR/2001/REC-SVG-20010904/DTD/svg10.dtd">
<svg version="1.0" xmlns="http://www.w3.org/2000/svg"
 width="3200.000000pt" height="2400.000000pt" viewBox="0 0 3200.000000 2400.000000"
 preserveAspectRatio="xMidYMid meet">
<metadata>
Created by potrace 1.16, written by Peter Selinger 2001-2019
</metadata>
<g transform="translate(0.000000,2400.000000) scale(0.100000,-0.100000)"
fill="#000000" stroke="none">
<path d="M0 12000 l0 -12000 16000 0 16000 0 0 12000 0 12000 -16000 0 -16000
0 0 -12000z m7430 2070 c605 -106 1054 -443 1317 -990 94 -195 168 -472 194
-719 12 -113 7 -495 -7 -553 l-6 -28 -1545 0 -1544 0 6 -62 c19 -183 83 -413
153 -553 165 -329 469 -551 852 -622 130 -24 428 -24 560 1 396 72 659 280
796 629 l38 97 343 0 c205 0 343 -4 343 -9 0 -5 -13 -61 -29 -123 -66 -254
-179 -469 -342 -652 -270 -303 -635 -490 -1099 -562 -180 -28 -552 -26 -725 5
-424 75 -750 238 -1026 511 -240 238 -403 533 -494 895 -88 347 -104 772 -44
1125 161 943 778 1539 1694 1634 22 2 130 3 240 1 149 -3 232 -9 325 -25z
m6450 15 c681 -82 1213 -450 1506 -1040 111 -223 186 -496 215 -779 15 -150 6
-514 -15 -651 -109 -686 -472 -1212 -1035 -1499 -263 -134 -532 -201 -846
-213 -557 -20 -1083 178 -1454 546 -302 300 -484 672 -567 1161 -25 148 -31
540 -10 710 120 984 783 1661 1731 1768 123 14 347 13 475 -3z m9570 -10 c512
-76 913 -292 1170 -630 189 -249 294 -534 334 -902 l4 -43 -341 0 -342 0 -23
117 c-67 345 -261 607 -546 738 -277 127 -670 159 -982 80 -362 -92 -643 -346
-787 -710 -85 -215 -120 -427 -120 -725 0 -223 14 -347 58 -520 126 -498 462
-836 924 -930 342 -69 693 -10 964 164 92 58 222 191 292 296 99 149 155 288
198 495 l23 110 340 0 339 0 -3 -50 c-5 -81 -31 -232 -57 -336 -164 -648 -618
-1102 -1264 -1263 -194 -49 -300 -61 -541 -60 -166 0 -251 5 -325 17 -653 114
-1144 470 -1421 1032 -152 309 -226 651 -227 1045 0 218 12 346 49 530 118
578 447 1045 925 1316 222 126 482 208 769 244 106 13 465 4 590 -15z m4094 1
c390 -62 710 -216 969 -466 305 -294 489 -669 564 -1150 14 -88 18 -170 17
-350 -1 -129 -5 -255 -10 -280 l-10 -45 -1543 -3 -1544 -2 7 -73 c24 -246 112
-502 239 -692 60 -90 220 -241 321 -304 312 -193 768 -244 1161 -129 293 85
526 298 635 580 17 43 30 84 30 93 0 13 42 15 349 15 l349 0 -18 -83 c-60
-274 -200 -539 -391 -740 -264 -280 -621 -455 -1069 -524 -163 -25 -532 -25
-685 0 -452 75 -797 246 -1081 538 -297 307 -464 682 -535 1209 -17 124 -17
534 -1 665 71 550 294 1009 639 1310 284 248 622 394 1033 445 107 13 456 4
574 -14z m-22544 -365 l0 -329 -297 -4 c-281 -5 -304 -7 -398 -31 -55 -15
-146 -49 -202 -77 -84 -41 -119 -67 -193 -136 -178 -170 -270 -363 -315 -662
-12 -81 -15 -292 -15 -1279 l0 -1183 -340 0 -340 0 0 1183 c0 1240 2 1305 45
1522 135 675 604 1148 1275 1284 155 32 238 38 523 40 l257 1 0 -329z m6197
-948 c-4 -1275 -4 -1269 -48 -1487 -146 -724 -686 -1212 -1439 -1301 -79 -10
-217 -15 -372 -15 l-248 0 0 329 0 329 298 5 c322 5 380 13 520 67 230 89 420
283 513 523 40 106 76 261 89 386 6 64 10 530 10 1247 l0 1144 341 0 340 0 -4
-1227z m5536 -35 c4 -1366 1 -1299 57 -1505 26 -96 87 -234 135 -308 53 -81
187 -212 266 -258 163 -95 344 -139 584 -140 88 0 196 5 240 12 398 64 664
307 770 703 54 202 55 218 55 1539 l0 1219 340 0 340 0 0 -1254 c0 -801 -4
-1291 -10 -1357 -50 -489 -255 -866 -619 -1137 -337 -252 -847 -381 -1309
-332 -754 81 -1301 520 -1467 1178 -61 242 -58 189 -62 1605 l-4 1297 340 0
340 0 4 -1262z m3997 -728 l0 -1990 -335 0 -335 0 0 1990 0 1990 335 0 335 0
0 -1990z"/>
<path d="M6875 13469 c-471 -56 -808 -333 -949 -777 -26 -84 -66 -264 -66
-301 l0 -21 1191 0 1190 0 -6 48 c-32 229 -110 446 -218 607 -60 90 -210 232
-305 289 -173 103 -371 155 -612 161 -80 2 -181 0 -225 -6z"/>
<path d="M13466 13470 c-351 -44 -631 -201 -826 -461 -61 -83 -137 -221 -175
-323 -129 -343 -145 -866 -39 -1233 141 -487 469 -804 934 -904 150 -32 400
-32 550 0 513 110 863 493 971 1064 27 142 37 492 20 648 -75 653 -425 1076
-984 1190 -115 23 -341 33 -451 19z"/>
<path d="M27025 13469 c-169 -19 -360 -81 -492 -161 -148 -89 -287 -241 -373
-409 -73 -142 -114 -274 -154 -496 l-5 -33 1193 0 1193 0 -4 33 c-39 312 -158
583 -336 761 -242 242 -606 350 -1022 305z"/>
</g>
</svg>
